<svg width="17" height="15" viewBox="0 0 17 15" fill="none" xmlns="http://www.w3.org/2000/svg">
  <path d="M11.6047 11.9741L11.1768 13.5708L0.00032686 10.576L0.428146 8.97939C0.428146 8.97939 1.28379 5.7861 6.87204 7.28347C12.4603 8.78083 11.6047 11.9741 11.6047 11.9741ZM10.8427 3.64138C10.9907 3.08875 10.9716 2.50463 10.7877 1.96287C10.6038 1.42111 10.2634 0.946053 9.8095 0.597768C9.35561 0.249483 8.80863 0.0436141 8.23773 0.00619567C7.66684 -0.0312229 7.09767 0.101489 6.6022 0.38755C6.10673 0.67361 5.70721 1.10017 5.45417 1.61329C5.20112 2.12641 5.10592 2.70304 5.1806 3.27027C5.25527 3.83749 5.49648 4.36984 5.8737 4.79998C6.25093 5.23012 6.74723 5.53875 7.29986 5.68682C8.04091 5.88539 8.83048 5.78144 9.49489 5.39784C10.1593 5.01425 10.6441 4.38243 10.8427 3.64138ZM12.4124 8.768C12.8014 9.2793 13.0736 9.86964 13.2099 10.4975C13.3462 11.1253 13.3433 11.7754 13.2013 12.4019L12.7735 13.9986L15.9668 14.8542L16.3946 13.2576C16.3946 13.2576 17.1711 10.3597 12.4124 8.768ZM13.5872 1.38203C13.0385 1.23173 12.4571 1.25202 11.9202 1.44019C12.2236 2.24769 12.2667 3.12989 12.0434 3.96311C11.8201 4.79633 11.3417 5.5388 10.6752 6.08642C11.0461 6.51782 11.5395 6.8261 12.0898 6.97028C12.8308 7.16884 13.6204 7.06489 14.2848 6.6813C14.9492 6.2977 15.434 5.66589 15.6326 4.92484C15.8312 4.18379 15.7272 3.39421 15.3436 2.72981C14.96 2.0654 14.3282 1.58059 13.5872 1.38203Z" fill="#FBFBFB" />
</svg>