<svg width="9" height="15" viewBox="0 0 9 15" fill="none" xmlns="http://www.w3.org/2000/svg">
  <path d="M2 4.25C2 3.07793 2.89687 2.125 4 2.125H5C6.10313 2.125 7 3.07793 7 4.25V4.36953C7 5.09336 6.65313 5.76738 6.08125 6.15586L4.7625 7.05567C4.3753 7.32018 4.0568 7.68375 3.83622 8.11304C3.61564 8.54233 3.50003 9.0236 3.5 9.5127V9.5625C3.5 10.1502 3.94688 10.625 4.5 10.625C5.05312 10.625 5.5 10.1502 5.5 9.5625V9.51602C5.5 9.24375 5.63125 8.99141 5.84375 8.84531L7.1625 7.94551C8.30625 7.16192 9 5.81719 9 4.36953V4.25C9 1.90254 7.20937 0 5 0H4C1.79063 0 0 1.90254 0 4.25C0 4.8377 0.446875 5.3125 1 5.3125C1.55313 5.3125 2 4.8377 2 4.25ZM4.5 14.875C4.83152 14.875 5.14946 14.7351 5.38388 14.486C5.6183 14.2369 5.75 13.8991 5.75 13.5469C5.75 13.1946 5.6183 12.8568 5.38388 12.6078C5.14946 12.3587 4.83152 12.2188 4.5 12.2188C4.16848 12.2188 3.85054 12.3587 3.61612 12.6078C3.3817 12.8568 3.25 13.1946 3.25 13.5469C3.25 13.8991 3.3817 14.2369 3.61612 14.486C3.85054 14.7351 4.16848 14.875 4.5 14.875Z" fill="#FBFBFB" />
</svg>